<?xml version="1.0" encoding="utf-8" standalone="no"?>
<!DOCTYPE svg PUBLIC "-//W3C//DTD SVG 1.1//EN"
  "http://www.w3.org/Graphics/SVG/1.1/DTD/svg11.dtd">
<svg xmlns:xlink="http://www.w3.org/1999/xlink" width="923.76pt" height="479.52pt" viewBox="0 0 923.76 479.52" xmlns="http://www.w3.org/2000/svg" version="1.1">
 <metadata>
  <rdf:RDF xmlns:dc="http://purl.org/dc/elements/1.1/" xmlns:cc="http://creativecommons.org/ns#" xmlns:rdf="http://www.w3.org/1999/02/22-rdf-syntax-ns#">
   <cc:Work>
    <dc:type rdf:resource="http://purl.org/dc/dcmitype/StillImage"/>
    <dc:date>2023-09-14T01:20:42.964535</dc:date>
    <dc:format>image/svg+xml</dc:format>
    <dc:creator>
     <cc:Agent>
      <dc:title>Matplotlib v3.7.2, https://matplotlib.org/</dc:title>
     </cc:Agent>
    </dc:creator>
   </cc:Work>
  </rdf:RDF>
 </metadata>
 <defs>
  <style type="text/css">*{stroke-linejoin: round; stroke-linecap: butt}</style>
 </defs>
 <g id="figure_1">
  <g id="patch_1">
   <path d="M 0 479.52 
L 923.76 479.52 
L 923.76 0 
L 0 0 
z
" style="fill: #ffffff"/>
  </g>
  <g id="axes_1">
   <g id="patch_2">
    <path d="M 50.48 204.16 
L 304.32 204.16 
L 304.32 25.92 
L 50.48 25.92 
z
" style="fill: #ffffff"/>
   </g>
   <g id="matplotlib.axis_1">
    <g id="xtick_1">
     <g id="line2d_1">
      <defs>
       <path id="mdecebe8ed6" d="M 0 0 
L 0 3.5 
" style="stroke: #000000; stroke-width: 0.8"/>
      </defs>
      <g>
       <use xlink:href="#mdecebe8ed6" x="62.018182" y="204.16" style="stroke: #000000; stroke-width: 0.8"/>
      </g>
     </g>
     <g id="text_1">
      <!-- 0 -->
      <g transform="translate(58.836932 218.758437) scale(0.1 -0.1)">
       <defs>
        <path id="DejaVuSans-30" d="M 2034 4250 
Q 1547 4250 1301 3770 
Q 1056 3291 1056 2328 
Q 1056 1369 1301 889 
Q 1547 409 2034 409 
Q 2525 409 2770 889 
Q 3016 1369 3016 2328 
Q 3016 3291 2770 3770 
Q 2525 4250 2034 4250 
z
M 2034 4750 
Q 2819 4750 3233 4129 
Q 3647 3509 3647 2328 
Q 3647 1150 3233 529 
Q 2819 -91 2034 -91 
Q 1250 -91 836 529 
Q 422 1150 422 2328 
Q 422 3509 836 4129 
Q 1250 4750 2034 4750 
z
" transform="scale(0.015625)"/>
       </defs>
       <use xlink:href="#DejaVuSans-30"/>
      </g>
     </g>
    </g>
    <g id="xtick_2">
     <g id="line2d_2">
      <g>
       <use xlink:href="#mdecebe8ed6" x="113.29899" y="204.16" style="stroke: #000000; stroke-width: 0.8"/>
      </g>
     </g>
     <g id="text_2">
      <!-- 20 -->
      <g transform="translate(106.93649 218.758437) scale(0.1 -0.1)">
       <defs>
        <path id="DejaVuSans-32" d="M 1228 531 
L 3431 531 
L 3431 0 
L 469 0 
L 469 531 
Q 828 903 1448 1529 
Q 2069 2156 2228 2338 
Q 2531 2678 2651 2914 
Q 2772 3150 2772 3378 
Q 2772 3750 2511 3984 
Q 2250 4219 1831 4219 
Q 1534 4219 1204 4116 
Q 875 4013 500 3803 
L 500 4441 
Q 881 4594 1212 4672 
Q 1544 4750 1819 4750 
Q 2544 4750 2975 4387 
Q 3406 4025 3406 3419 
Q 3406 3131 3298 2873 
Q 3191 2616 2906 2266 
Q 2828 2175 2409 1742 
Q 1991 1309 1228 531 
z
" transform="scale(0.015625)"/>
       </defs>
       <use xlink:href="#DejaVuSans-32"/>
       <use xlink:href="#DejaVuSans-30" x="63.623047"/>
      </g>
     </g>
    </g>
    <g id="xtick_3">
     <g id="line2d_3">
      <g>
       <use xlink:href="#mdecebe8ed6" x="164.579798" y="204.16" style="stroke: #000000; stroke-width: 0.8"/>
      </g>
     </g>
     <g id="text_3">
      <!-- 40 -->
      <g transform="translate(158.217298 218.758437) scale(0.1 -0.1)">
       <defs>
        <path id="DejaVuSans-34" d="M 2419 4116 
L 825 1625 
L 2419 1625 
L 2419 4116 
z
M 2253 4666 
L 3047 4666 
L 3047 1625 
L 3713 1625 
L 3713 1100 
L 3047 1100 
L 3047 0 
L 2419 0 
L 2419 1100 
L 313 1100 
L 313 1709 
L 2253 4666 
z
" transform="scale(0.015625)"/>
       </defs>
       <use xlink:href="#DejaVuSans-34"/>
       <use xlink:href="#DejaVuSans-30" x="63.623047"/>
      </g>
     </g>
    </g>
    <g id="xtick_4">
     <g id="line2d_4">
      <g>
       <use xlink:href="#mdecebe8ed6" x="215.860606" y="204.16" style="stroke: #000000; stroke-width: 0.8"/>
      </g>
     </g>
     <g id="text_4">
      <!-- 60 -->
      <g transform="translate(209.498106 218.758437) scale(0.1 -0.1)">
       <defs>
        <path id="DejaVuSans-36" d="M 2113 2584 
Q 1688 2584 1439 2293 
Q 1191 2003 1191 1497 
Q 1191 994 1439 701 
Q 1688 409 2113 409 
Q 2538 409 2786 701 
Q 3034 994 3034 1497 
Q 3034 2003 2786 2293 
Q 2538 2584 2113 2584 
z
M 3366 4563 
L 3366 3988 
Q 3128 4100 2886 4159 
Q 2644 4219 2406 4219 
Q 1781 4219 1451 3797 
Q 1122 3375 1075 2522 
Q 1259 2794 1537 2939 
Q 1816 3084 2150 3084 
Q 2853 3084 3261 2657 
Q 3669 2231 3669 1497 
Q 3669 778 3244 343 
Q 2819 -91 2113 -91 
Q 1303 -91 875 529 
Q 447 1150 447 2328 
Q 447 3434 972 4092 
Q 1497 4750 2381 4750 
Q 2619 4750 2861 4703 
Q 3103 4656 3366 4563 
z
" transform="scale(0.015625)"/>
       </defs>
       <use xlink:href="#DejaVuSans-36"/>
       <use xlink:href="#DejaVuSans-30" x="63.623047"/>
      </g>
     </g>
    </g>
    <g id="xtick_5">
     <g id="line2d_5">
      <g>
       <use xlink:href="#mdecebe8ed6" x="267.141414" y="204.16" style="stroke: #000000; stroke-width: 0.8"/>
      </g>
     </g>
     <g id="text_5">
      <!-- 80 -->
      <g transform="translate(260.778914 218.758437) scale(0.1 -0.1)">
       <defs>
        <path id="DejaVuSans-38" d="M 2034 2216 
Q 1584 2216 1326 1975 
Q 1069 1734 1069 1313 
Q 1069 891 1326 650 
Q 1584 409 2034 409 
Q 2484 409 2743 651 
Q 3003 894 3003 1313 
Q 3003 1734 2745 1975 
Q 2488 2216 2034 2216 
z
M 1403 2484 
Q 997 2584 770 2862 
Q 544 3141 544 3541 
Q 544 4100 942 4425 
Q 1341 4750 2034 4750 
Q 2731 4750 3128 4425 
Q 3525 4100 3525 3541 
Q 3525 3141 3298 2862 
Q 3072 2584 2669 2484 
Q 3125 2378 3379 2068 
Q 3634 1759 3634 1313 
Q 3634 634 3220 271 
Q 2806 -91 2034 -91 
Q 1263 -91 848 271 
Q 434 634 434 1313 
Q 434 1759 690 2068 
Q 947 2378 1403 2484 
z
M 1172 3481 
Q 1172 3119 1398 2916 
Q 1625 2713 2034 2713 
Q 2441 2713 2670 2916 
Q 2900 3119 2900 3481 
Q 2900 3844 2670 4047 
Q 2441 4250 2034 4250 
Q 1625 4250 1398 4047 
Q 1172 3844 1172 3481 
z
" transform="scale(0.015625)"/>
       </defs>
       <use xlink:href="#DejaVuSans-38"/>
       <use xlink:href="#DejaVuSans-30" x="63.623047"/>
      </g>
     </g>
    </g>
    <g id="text_6">
     <!-- Theta (degrees) -->
     <g transform="translate(137.460156 232.436562) scale(0.1 -0.1)">
      <defs>
       <path id="DejaVuSans-54" d="M -19 4666 
L 3928 4666 
L 3928 4134 
L 2272 4134 
L 2272 0 
L 1638 0 
L 1638 4134 
L -19 4134 
L -19 4666 
z
" transform="scale(0.015625)"/>
       <path id="DejaVuSans-68" d="M 3513 2113 
L 3513 0 
L 2938 0 
L 2938 2094 
Q 2938 2591 2744 2837 
Q 2550 3084 2163 3084 
Q 1697 3084 1428 2787 
Q 1159 2491 1159 1978 
L 1159 0 
L 581 0 
L 581 4863 
L 1159 4863 
L 1159 2956 
Q 1366 3272 1645 3428 
Q 1925 3584 2291 3584 
Q 2894 3584 3203 3211 
Q 3513 2838 3513 2113 
z
" transform="scale(0.015625)"/>
       <path id="DejaVuSans-65" d="M 3597 1894 
L 3597 1613 
L 953 1613 
Q 991 1019 1311 708 
Q 1631 397 2203 397 
Q 2534 397 2845 478 
Q 3156 559 3463 722 
L 3463 178 
Q 3153 47 2828 -22 
Q 2503 -91 2169 -91 
Q 1331 -91 842 396 
Q 353 884 353 1716 
Q 353 2575 817 3079 
Q 1281 3584 2069 3584 
Q 2775 3584 3186 3129 
Q 3597 2675 3597 1894 
z
M 3022 2063 
Q 3016 2534 2758 2815 
Q 2500 3097 2075 3097 
Q 1594 3097 1305 2825 
Q 1016 2553 972 2059 
L 3022 2063 
z
" transform="scale(0.015625)"/>
       <path id="DejaVuSans-74" d="M 1172 4494 
L 1172 3500 
L 2356 3500 
L 2356 3053 
L 1172 3053 
L 1172 1153 
Q 1172 725 1289 603 
Q 1406 481 1766 481 
L 2356 481 
L 2356 0 
L 1766 0 
Q 1100 0 847 248 
Q 594 497 594 1153 
L 594 3053 
L 172 3053 
L 172 3500 
L 594 3500 
L 594 4494 
L 1172 4494 
z
" transform="scale(0.015625)"/>
       <path id="DejaVuSans-61" d="M 2194 1759 
Q 1497 1759 1228 1600 
Q 959 1441 959 1056 
Q 959 750 1161 570 
Q 1363 391 1709 391 
Q 2188 391 2477 730 
Q 2766 1069 2766 1631 
L 2766 1759 
L 2194 1759 
z
M 3341 1997 
L 3341 0 
L 2766 0 
L 2766 531 
Q 2569 213 2275 61 
Q 1981 -91 1556 -91 
Q 1019 -91 701 211 
Q 384 513 384 1019 
Q 384 1609 779 1909 
Q 1175 2209 1959 2209 
L 2766 2209 
L 2766 2266 
Q 2766 2663 2505 2880 
Q 2244 3097 1772 3097 
Q 1472 3097 1187 3025 
Q 903 2953 641 2809 
L 641 3341 
Q 956 3463 1253 3523 
Q 1550 3584 1831 3584 
Q 2591 3584 2966 3190 
Q 3341 2797 3341 1997 
z
" transform="scale(0.015625)"/>
       <path id="DejaVuSans-20" transform="scale(0.015625)"/>
       <path id="DejaVuSans-28" d="M 1984 4856 
Q 1566 4138 1362 3434 
Q 1159 2731 1159 2009 
Q 1159 1288 1364 580 
Q 1569 -128 1984 -844 
L 1484 -844 
Q 1016 -109 783 600 
Q 550 1309 550 2009 
Q 550 2706 781 3412 
Q 1013 4119 1484 4856 
L 1984 4856 
z
" transform="scale(0.015625)"/>
       <path id="DejaVuSans-64" d="M 2906 2969 
L 2906 4863 
L 3481 4863 
L 3481 0 
L 2906 0 
L 2906 525 
Q 2725 213 2448 61 
Q 2172 -91 1784 -91 
Q 1150 -91 751 415 
Q 353 922 353 1747 
Q 353 2572 751 3078 
Q 1150 3584 1784 3584 
Q 2172 3584 2448 3432 
Q 2725 3281 2906 2969 
z
M 947 1747 
Q 947 1113 1208 752 
Q 1469 391 1925 391 
Q 2381 391 2643 752 
Q 2906 1113 2906 1747 
Q 2906 2381 2643 2742 
Q 2381 3103 1925 3103 
Q 1469 3103 1208 2742 
Q 947 2381 947 1747 
z
" transform="scale(0.015625)"/>
       <path id="DejaVuSans-67" d="M 2906 1791 
Q 2906 2416 2648 2759 
Q 2391 3103 1925 3103 
Q 1463 3103 1205 2759 
Q 947 2416 947 1791 
Q 947 1169 1205 825 
Q 1463 481 1925 481 
Q 2391 481 2648 825 
Q 2906 1169 2906 1791 
z
M 3481 434 
Q 3481 -459 3084 -895 
Q 2688 -1331 1869 -1331 
Q 1566 -1331 1297 -1286 
Q 1028 -1241 775 -1147 
L 775 -588 
Q 1028 -725 1275 -790 
Q 1522 -856 1778 -856 
Q 2344 -856 2625 -561 
Q 2906 -266 2906 331 
L 2906 616 
Q 2728 306 2450 153 
Q 2172 0 1784 0 
Q 1141 0 747 490 
Q 353 981 353 1791 
Q 353 2603 747 3093 
Q 1141 3584 1784 3584 
Q 2172 3584 2450 3431 
Q 2728 3278 2906 2969 
L 2906 3500 
L 3481 3500 
L 3481 434 
z
" transform="scale(0.015625)"/>
       <path id="DejaVuSans-72" d="M 2631 2963 
Q 2534 3019 2420 3045 
Q 2306 3072 2169 3072 
Q 1681 3072 1420 2755 
Q 1159 2438 1159 1844 
L 1159 0 
L 581 0 
L 581 3500 
L 1159 3500 
L 1159 2956 
Q 1341 3275 1631 3429 
Q 1922 3584 2338 3584 
Q 2397 3584 2469 3576 
Q 2541 3569 2628 3553 
L 2631 2963 
z
" transform="scale(0.015625)"/>
       <path id="DejaVuSans-73" d="M 2834 3397 
L 2834 2853 
Q 2591 2978 2328 3040 
Q 2066 3103 1784 3103 
Q 1356 3103 1142 2972 
Q 928 2841 928 2578 
Q 928 2378 1081 2264 
Q 1234 2150 1697 2047 
L 1894 2003 
Q 2506 1872 2764 1633 
Q 3022 1394 3022 966 
Q 3022 478 2636 193 
Q 2250 -91 1575 -91 
Q 1294 -91 989 -36 
Q 684 19 347 128 
L 347 722 
Q 666 556 975 473 
Q 1284 391 1588 391 
Q 1994 391 2212 530 
Q 2431 669 2431 922 
Q 2431 1156 2273 1281 
Q 2116 1406 1581 1522 
L 1381 1569 
Q 847 1681 609 1914 
Q 372 2147 372 2553 
Q 372 3047 722 3315 
Q 1072 3584 1716 3584 
Q 2034 3584 2315 3537 
Q 2597 3491 2834 3397 
z
" transform="scale(0.015625)"/>
       <path id="DejaVuSans-29" d="M 513 4856 
L 1013 4856 
Q 1481 4119 1714 3412 
Q 1947 2706 1947 2009 
Q 1947 1309 1714 600 
Q 1481 -109 1013 -844 
L 513 -844 
Q 928 -128 1133 580 
Q 1338 1288 1338 2009 
Q 1338 2731 1133 3434 
Q 928 4138 513 4856 
z
" transform="scale(0.015625)"/>
      </defs>
      <use xlink:href="#DejaVuSans-54"/>
      <use xlink:href="#DejaVuSans-68" x="61.083984"/>
      <use xlink:href="#DejaVuSans-65" x="124.462891"/>
      <use xlink:href="#DejaVuSans-74" x="185.986328"/>
      <use xlink:href="#DejaVuSans-61" x="225.195312"/>
      <use xlink:href="#DejaVuSans-20" x="286.474609"/>
      <use xlink:href="#DejaVuSans-28" x="318.261719"/>
      <use xlink:href="#DejaVuSans-64" x="357.275391"/>
      <use xlink:href="#DejaVuSans-65" x="420.751953"/>
      <use xlink:href="#DejaVuSans-67" x="482.275391"/>
      <use xlink:href="#DejaVuSans-72" x="545.751953"/>
      <use xlink:href="#DejaVuSans-65" x="584.615234"/>
      <use xlink:href="#DejaVuSans-65" x="646.138672"/>
      <use xlink:href="#DejaVuSans-73" x="707.662109"/>
      <use xlink:href="#DejaVuSans-29" x="759.761719"/>
     </g>
    </g>
   </g>
   <g id="matplotlib.axis_2">
    <g id="ytick_1">
     <g id="line2d_6">
      <defs>
       <path id="m440ceaa0fd" d="M 0 0 
L -3.5 0 
" style="stroke: #000000; stroke-width: 0.8"/>
      </defs>
      <g>
       <use xlink:href="#m440ceaa0fd" x="50.48" y="200.109091" style="stroke: #000000; stroke-width: 0.8"/>
      </g>
     </g>
     <g id="text_7">
      <!-- 0 -->
      <g transform="translate(37.1175 203.90831) scale(0.1 -0.1)">
       <use xlink:href="#DejaVuSans-30"/>
      </g>
     </g>
    </g>
    <g id="ytick_2">
     <g id="line2d_7">
      <g>
       <use xlink:href="#m440ceaa0fd" x="50.48" y="159.6" style="stroke: #000000; stroke-width: 0.8"/>
      </g>
     </g>
     <g id="text_8">
      <!-- 50 -->
      <g transform="translate(30.755 163.399219) scale(0.1 -0.1)">
       <defs>
        <path id="DejaVuSans-35" d="M 691 4666 
L 3169 4666 
L 3169 4134 
L 1269 4134 
L 1269 2991 
Q 1406 3038 1543 3061 
Q 1681 3084 1819 3084 
Q 2600 3084 3056 2656 
Q 3513 2228 3513 1497 
Q 3513 744 3044 326 
Q 2575 -91 1722 -91 
Q 1428 -91 1123 -41 
Q 819 9 494 109 
L 494 744 
Q 775 591 1075 516 
Q 1375 441 1709 441 
Q 2250 441 2565 725 
Q 2881 1009 2881 1497 
Q 2881 1984 2565 2268 
Q 2250 2553 1709 2553 
Q 1456 2553 1204 2497 
Q 953 2441 691 2322 
L 691 4666 
z
" transform="scale(0.015625)"/>
       </defs>
       <use xlink:href="#DejaVuSans-35"/>
       <use xlink:href="#DejaVuSans-30" x="63.623047"/>
      </g>
     </g>
    </g>
    <g id="ytick_3">
     <g id="line2d_8">
      <g>
       <use xlink:href="#m440ceaa0fd" x="50.48" y="119.090909" style="stroke: #000000; stroke-width: 0.8"/>
      </g>
     </g>
     <g id="text_9">
      <!-- 100 -->
      <g transform="translate(24.3925 122.890128) scale(0.1 -0.1)">
       <defs>
        <path id="DejaVuSans-31" d="M 794 531 
L 1825 531 
L 1825 4091 
L 703 3866 
L 703 4441 
L 1819 4666 
L 2450 4666 
L 2450 531 
L 3481 531 
L 3481 0 
L 794 0 
L 794 531 
z
" transform="scale(0.015625)"/>
       </defs>
       <use xlink:href="#DejaVuSans-31"/>
       <use xlink:href="#DejaVuSans-30" x="63.623047"/>
       <use xlink:href="#DejaVuSans-30" x="127.246094"/>
      </g>
     </g>
    </g>
    <g id="ytick_4">
     <g id="line2d_9">
      <g>
       <use xlink:href="#m440ceaa0fd" x="50.48" y="78.581818" style="stroke: #000000; stroke-width: 0.8"/>
      </g>
     </g>
     <g id="text_10">
      <!-- 150 -->
      <g transform="translate(24.3925 82.381037) scale(0.1 -0.1)">
       <use xlink:href="#DejaVuSans-31"/>
       <use xlink:href="#DejaVuSans-35" x="63.623047"/>
       <use xlink:href="#DejaVuSans-30" x="127.246094"/>
      </g>
     </g>
    </g>
    <g id="ytick_5">
     <g id="line2d_10">
      <g>
       <use xlink:href="#m440ceaa0fd" x="50.48" y="38.072727" style="stroke: #000000; stroke-width: 0.8"/>
      </g>
     </g>
     <g id="text_11">
      <!-- 200 -->
      <g transform="translate(24.3925 41.871946) scale(0.1 -0.1)">
       <use xlink:href="#DejaVuSans-32"/>
       <use xlink:href="#DejaVuSans-30" x="63.623047"/>
       <use xlink:href="#DejaVuSans-30" x="127.246094"/>
      </g>
     </g>
    </g>
    <g id="text_12">
     <!-- Ex (GPa) -->
     <g transform="translate(18.312812 136.3775) rotate(-90) scale(0.1 -0.1)">
      <defs>
       <path id="DejaVuSans-45" d="M 628 4666 
L 3578 4666 
L 3578 4134 
L 1259 4134 
L 1259 2753 
L 3481 2753 
L 3481 2222 
L 1259 2222 
L 1259 531 
L 3634 531 
L 3634 0 
L 628 0 
L 628 4666 
z
" transform="scale(0.015625)"/>
       <path id="DejaVuSans-78" d="M 3513 3500 
L 2247 1797 
L 3578 0 
L 2900 0 
L 1881 1375 
L 863 0 
L 184 0 
L 1544 1831 
L 300 3500 
L 978 3500 
L 1906 2253 
L 2834 3500 
L 3513 3500 
z
" transform="scale(0.015625)"/>
       <path id="DejaVuSans-47" d="M 3809 666 
L 3809 1919 
L 2778 1919 
L 2778 2438 
L 4434 2438 
L 4434 434 
Q 4069 175 3628 42 
Q 3188 -91 2688 -91 
Q 1594 -91 976 548 
Q 359 1188 359 2328 
Q 359 3472 976 4111 
Q 1594 4750 2688 4750 
Q 3144 4750 3555 4637 
Q 3966 4525 4313 4306 
L 4313 3634 
Q 3963 3931 3569 4081 
Q 3175 4231 2741 4231 
Q 1884 4231 1454 3753 
Q 1025 3275 1025 2328 
Q 1025 1384 1454 906 
Q 1884 428 2741 428 
Q 3075 428 3337 486 
Q 3600 544 3809 666 
z
" transform="scale(0.015625)"/>
       <path id="DejaVuSans-50" d="M 1259 4147 
L 1259 2394 
L 2053 2394 
Q 2494 2394 2734 2622 
Q 2975 2850 2975 3272 
Q 2975 3691 2734 3919 
Q 2494 4147 2053 4147 
L 1259 4147 
z
M 628 4666 
L 2053 4666 
Q 2838 4666 3239 4311 
Q 3641 3956 3641 3272 
Q 3641 2581 3239 2228 
Q 2838 1875 2053 1875 
L 1259 1875 
L 1259 0 
L 628 0 
L 628 4666 
z
" transform="scale(0.015625)"/>
      </defs>
      <use xlink:href="#DejaVuSans-45"/>
      <use xlink:href="#DejaVuSans-78" x="63.183594"/>
      <use xlink:href="#DejaVuSans-20" x="122.363281"/>
      <use xlink:href="#DejaVuSans-28" x="154.150391"/>
      <use xlink:href="#DejaVuSans-47" x="193.164062"/>
      <use xlink:href="#DejaVuSans-50" x="270.654297"/>
      <use xlink:href="#DejaVuSans-61" x="326.457031"/>
      <use xlink:href="#DejaVuSans-29" x="387.736328"/>
     </g>
    </g>
   </g>
   <g id="line2d_11">
    <path d="M 62.018182 34.021818 
L 64.582222 37.947897 
L 67.146263 48.676055 
L 69.710303 63.687769 
L 72.274343 80.269136 
L 74.838384 96.409064 
L 77.402424 111.002523 
L 79.966465 123.642771 
L 82.530505 134.332698 
L 85.094545 143.265868 
L 87.658586 150.697519 
L 90.222626 156.880642 
L 92.786667 162.039765 
L 95.350707 166.363796 
L 97.914747 170.007365 
L 100.478788 173.095308 
L 103.042828 175.727807 
L 105.606869 177.985149 
L 108.170909 179.931782 
L 110.734949 181.619605 
L 113.29899 183.090598 
L 115.86303 184.378886 
L 118.427071 185.512359 
L 120.991111 186.513933 
L 123.555152 187.402541 
L 126.119192 188.193914 
L 128.683232 188.901185 
L 131.247273 189.53538 
L 133.811313 190.105799 
L 136.375354 190.620327 
L 138.939394 191.085674 
L 141.503434 191.507581 
L 144.067475 191.890979 
L 146.631515 192.240117 
L 149.195556 192.558677 
L 151.759596 192.849855 
L 154.323636 193.116438 
L 156.887677 193.360865 
L 159.451717 193.585277 
L 162.015758 193.791559 
L 164.579798 193.981374 
L 167.143838 194.156199 
L 169.707879 194.317343 
L 172.271919 194.465971 
L 174.83596 194.603128 
L 177.4 194.729746 
L 179.96404 194.846664 
L 182.528081 194.954635 
L 185.092121 195.054342 
L 187.656162 195.146402 
L 190.220202 195.231372 
L 192.784242 195.309764 
L 195.348283 195.38204 
L 197.912323 195.448625 
L 200.476364 195.50991 
L 203.040404 195.566253 
L 205.604444 195.617985 
L 208.168485 195.665411 
L 210.732525 195.708816 
L 213.296566 195.748465 
L 215.860606 195.784605 
L 218.424646 195.817468 
L 220.988687 195.847271 
L 223.552727 195.874221 
L 226.116768 195.89851 
L 228.680808 195.920324 
L 231.244848 195.939838 
L 233.808889 195.957219 
L 236.372929 195.972626 
L 238.93697 195.986211 
L 241.50101 195.998122 
L 244.065051 196.008497 
L 246.629091 196.017472 
L 249.193131 196.025175 
L 251.757172 196.031729 
L 254.321212 196.037252 
L 256.885253 196.041857 
L 259.449293 196.04565 
L 262.013333 196.048732 
L 264.577374 196.051198 
L 267.141414 196.053137 
L 269.705455 196.054633 
L 272.269495 196.055759 
L 274.833535 196.056587 
L 277.397576 196.057176 
L 279.961616 196.057581 
L 282.525657 196.057849 
L 285.089697 196.058017 
L 287.653737 196.058116 
L 290.217778 196.058166 
L 292.781818 196.058182 
" clip-path="url(#p418371b8dc)" style="fill: none; stroke: #1f77b4; stroke-width: 1.5; stroke-linecap: square"/>
   </g>
   <g id="patch_3">
    <path d="M 50.48 204.16 
L 50.48 25.92 
" style="fill: none; stroke: #000000; stroke-width: 0.8; stroke-linejoin: miter; stroke-linecap: square"/>
   </g>
   <g id="patch_4">
    <path d="M 304.32 204.16 
L 304.32 25.92 
" style="fill: none; stroke: #000000; stroke-width: 0.8; stroke-linejoin: miter; stroke-linecap: square"/>
   </g>
   <g id="patch_5">
    <path d="M 50.48 204.16 
L 304.32 204.16 
" style="fill: none; stroke: #000000; stroke-width: 0.8; stroke-linejoin: miter; stroke-linecap: square"/>
   </g>
   <g id="patch_6">
    <path d="M 50.48 25.92 
L 304.32 25.92 
" style="fill: none; stroke: #000000; stroke-width: 0.8; stroke-linejoin: miter; stroke-linecap: square"/>
   </g>
   <g id="text_13">
    <!-- Ex vs. Theta -->
    <g transform="translate(140.471875 19.92) scale(0.12 -0.12)">
     <defs>
      <path id="DejaVuSans-76" d="M 191 3500 
L 800 3500 
L 1894 563 
L 2988 3500 
L 3597 3500 
L 2284 0 
L 1503 0 
L 191 3500 
z
" transform="scale(0.015625)"/>
      <path id="DejaVuSans-2e" d="M 684 794 
L 1344 794 
L 1344 0 
L 684 0 
L 684 794 
z
" transform="scale(0.015625)"/>
     </defs>
     <use xlink:href="#DejaVuSans-45"/>
     <use xlink:href="#DejaVuSans-78" x="63.183594"/>
     <use xlink:href="#DejaVuSans-20" x="122.363281"/>
     <use xlink:href="#DejaVuSans-76" x="154.150391"/>
     <use xlink:href="#DejaVuSans-73" x="213.330078"/>
     <use xlink:href="#DejaVuSans-2e" x="265.429688"/>
     <use xlink:href="#DejaVuSans-20" x="297.216797"/>
     <use xlink:href="#DejaVuSans-54" x="329.003906"/>
     <use xlink:href="#DejaVuSans-68" x="390.087891"/>
     <use xlink:href="#DejaVuSans-65" x="453.466797"/>
     <use xlink:href="#DejaVuSans-74" x="514.990234"/>
     <use xlink:href="#DejaVuSans-61" x="554.199219"/>
    </g>
   </g>
  </g>
  <g id="axes_2">
   <g id="patch_7">
    <path d="M 354.8 204.16 
L 608.64 204.16 
L 608.64 25.92 
L 354.8 25.92 
z
" style="fill: #ffffff"/>
   </g>
   <g id="matplotlib.axis_3">
    <g id="xtick_6">
     <g id="line2d_12">
      <g>
       <use xlink:href="#mdecebe8ed6" x="366.338182" y="204.16" style="stroke: #000000; stroke-width: 0.8"/>
      </g>
     </g>
     <g id="text_14">
      <!-- 0 -->
      <g transform="translate(363.156932 218.758437) scale(0.1 -0.1)">
       <use xlink:href="#DejaVuSans-30"/>
      </g>
     </g>
    </g>
    <g id="xtick_7">
     <g id="line2d_13">
      <g>
       <use xlink:href="#mdecebe8ed6" x="417.61899" y="204.16" style="stroke: #000000; stroke-width: 0.8"/>
      </g>
     </g>
     <g id="text_15">
      <!-- 20 -->
      <g transform="translate(411.25649 218.758437) scale(0.1 -0.1)">
       <use xlink:href="#DejaVuSans-32"/>
       <use xlink:href="#DejaVuSans-30" x="63.623047"/>
      </g>
     </g>
    </g>
    <g id="xtick_8">
     <g id="line2d_14">
      <g>
       <use xlink:href="#mdecebe8ed6" x="468.899798" y="204.16" style="stroke: #000000; stroke-width: 0.8"/>
      </g>
     </g>
     <g id="text_16">
      <!-- 40 -->
      <g transform="translate(462.537298 218.758437) scale(0.1 -0.1)">
       <use xlink:href="#DejaVuSans-34"/>
       <use xlink:href="#DejaVuSans-30" x="63.623047"/>
      </g>
     </g>
    </g>
    <g id="xtick_9">
     <g id="line2d_15">
      <g>
       <use xlink:href="#mdecebe8ed6" x="520.180606" y="204.16" style="stroke: #000000; stroke-width: 0.8"/>
      </g>
     </g>
     <g id="text_17">
      <!-- 60 -->
      <g transform="translate(513.818106 218.758437) scale(0.1 -0.1)">
       <use xlink:href="#DejaVuSans-36"/>
       <use xlink:href="#DejaVuSans-30" x="63.623047"/>
      </g>
     </g>
    </g>
    <g id="xtick_10">
     <g id="line2d_16">
      <g>
       <use xlink:href="#mdecebe8ed6" x="571.461414" y="204.16" style="stroke: #000000; stroke-width: 0.8"/>
      </g>
     </g>
     <g id="text_18">
      <!-- 80 -->
      <g transform="translate(565.098914 218.758437) scale(0.1 -0.1)">
       <use xlink:href="#DejaVuSans-38"/>
       <use xlink:href="#DejaVuSans-30" x="63.623047"/>
      </g>
     </g>
    </g>
    <g id="text_19">
     <!-- Theta (degrees) -->
     <g transform="translate(441.780156 232.436562) scale(0.1 -0.1)">
      <use xlink:href="#DejaVuSans-54"/>
      <use xlink:href="#DejaVuSans-68" x="61.083984"/>
      <use xlink:href="#DejaVuSans-65" x="124.462891"/>
      <use xlink:href="#DejaVuSans-74" x="185.986328"/>
      <use xlink:href="#DejaVuSans-61" x="225.195312"/>
      <use xlink:href="#DejaVuSans-20" x="286.474609"/>
      <use xlink:href="#DejaVuSans-28" x="318.261719"/>
      <use xlink:href="#DejaVuSans-64" x="357.275391"/>
      <use xlink:href="#DejaVuSans-65" x="420.751953"/>
      <use xlink:href="#DejaVuSans-67" x="482.275391"/>
      <use xlink:href="#DejaVuSans-72" x="545.751953"/>
      <use xlink:href="#DejaVuSans-65" x="584.615234"/>
      <use xlink:href="#DejaVuSans-65" x="646.138672"/>
      <use xlink:href="#DejaVuSans-73" x="707.662109"/>
      <use xlink:href="#DejaVuSans-29" x="759.761719"/>
     </g>
    </g>
   </g>
   <g id="matplotlib.axis_4">
    <g id="ytick_6">
     <g id="line2d_17">
      <g>
       <use xlink:href="#m440ceaa0fd" x="354.8" y="200.109091" style="stroke: #000000; stroke-width: 0.8"/>
      </g>
     </g>
     <g id="text_20">
      <!-- 0 -->
      <g transform="translate(341.4375 203.90831) scale(0.1 -0.1)">
       <use xlink:href="#DejaVuSans-30"/>
      </g>
     </g>
    </g>
    <g id="ytick_7">
     <g id="line2d_18">
      <g>
       <use xlink:href="#m440ceaa0fd" x="354.8" y="159.6" style="stroke: #000000; stroke-width: 0.8"/>
      </g>
     </g>
     <g id="text_21">
      <!-- 50 -->
      <g transform="translate(335.075 163.399219) scale(0.1 -0.1)">
       <use xlink:href="#DejaVuSans-35"/>
       <use xlink:href="#DejaVuSans-30" x="63.623047"/>
      </g>
     </g>
    </g>
    <g id="ytick_8">
     <g id="line2d_19">
      <g>
       <use xlink:href="#m440ceaa0fd" x="354.8" y="119.090909" style="stroke: #000000; stroke-width: 0.8"/>
      </g>
     </g>
     <g id="text_22">
      <!-- 100 -->
      <g transform="translate(328.7125 122.890128) scale(0.1 -0.1)">
       <use xlink:href="#DejaVuSans-31"/>
       <use xlink:href="#DejaVuSans-30" x="63.623047"/>
       <use xlink:href="#DejaVuSans-30" x="127.246094"/>
      </g>
     </g>
    </g>
    <g id="ytick_9">
     <g id="line2d_20">
      <g>
       <use xlink:href="#m440ceaa0fd" x="354.8" y="78.581818" style="stroke: #000000; stroke-width: 0.8"/>
      </g>
     </g>
     <g id="text_23">
      <!-- 150 -->
      <g transform="translate(328.7125 82.381037) scale(0.1 -0.1)">
       <use xlink:href="#DejaVuSans-31"/>
       <use xlink:href="#DejaVuSans-35" x="63.623047"/>
       <use xlink:href="#DejaVuSans-30" x="127.246094"/>
      </g>
     </g>
    </g>
    <g id="ytick_10">
     <g id="line2d_21">
      <g>
       <use xlink:href="#m440ceaa0fd" x="354.8" y="38.072727" style="stroke: #000000; stroke-width: 0.8"/>
      </g>
     </g>
     <g id="text_24">
      <!-- 200 -->
      <g transform="translate(328.7125 41.871946) scale(0.1 -0.1)">
       <use xlink:href="#DejaVuSans-32"/>
       <use xlink:href="#DejaVuSans-30" x="63.623047"/>
       <use xlink:href="#DejaVuSans-30" x="127.246094"/>
      </g>
     </g>
    </g>
    <g id="text_25">
     <!-- Ey (GPa) -->
     <g transform="translate(322.632813 136.3775) rotate(-90) scale(0.1 -0.1)">
      <defs>
       <path id="DejaVuSans-79" d="M 2059 -325 
Q 1816 -950 1584 -1140 
Q 1353 -1331 966 -1331 
L 506 -1331 
L 506 -850 
L 844 -850 
Q 1081 -850 1212 -737 
Q 1344 -625 1503 -206 
L 1606 56 
L 191 3500 
L 800 3500 
L 1894 763 
L 2988 3500 
L 3597 3500 
L 2059 -325 
z
" transform="scale(0.015625)"/>
      </defs>
      <use xlink:href="#DejaVuSans-45"/>
      <use xlink:href="#DejaVuSans-79" x="63.183594"/>
      <use xlink:href="#DejaVuSans-20" x="122.363281"/>
      <use xlink:href="#DejaVuSans-28" x="154.150391"/>
      <use xlink:href="#DejaVuSans-47" x="193.164062"/>
      <use xlink:href="#DejaVuSans-50" x="270.654297"/>
      <use xlink:href="#DejaVuSans-61" x="326.457031"/>
      <use xlink:href="#DejaVuSans-29" x="387.736328"/>
     </g>
    </g>
   </g>
   <g id="line2d_22">
    <path d="M 366.338182 196.058182 
L 368.902222 196.058166 
L 371.466263 196.058116 
L 374.030303 196.058017 
L 376.594343 196.057849 
L 379.158384 196.057581 
L 381.722424 196.057176 
L 384.286465 196.056587 
L 386.850505 196.055759 
L 389.414545 196.054633 
L 391.978586 196.053137 
L 394.542626 196.051198 
L 397.106667 196.048732 
L 399.670707 196.04565 
L 402.234747 196.041857 
L 404.798788 196.037252 
L 407.362828 196.031729 
L 409.926869 196.025175 
L 412.490909 196.017472 
L 415.054949 196.008497 
L 417.61899 195.998122 
L 420.18303 195.986211 
L 422.747071 195.972626 
L 425.311111 195.957219 
L 427.875152 195.939838 
L 430.439192 195.920324 
L 433.003232 195.89851 
L 435.567273 195.874221 
L 438.131313 195.847271 
L 440.695354 195.817468 
L 443.259394 195.784605 
L 445.823434 195.748465 
L 448.387475 195.708816 
L 450.951515 195.665411 
L 453.515556 195.617985 
L 456.079596 195.566253 
L 458.643636 195.50991 
L 461.207677 195.448625 
L 463.771717 195.38204 
L 466.335758 195.309764 
L 468.899798 195.231372 
L 471.463838 195.146402 
L 474.027879 195.054342 
L 476.591919 194.954635 
L 479.15596 194.846664 
L 481.72 194.729746 
L 484.28404 194.603128 
L 486.848081 194.465971 
L 489.412121 194.317343 
L 491.976162 194.156199 
L 494.540202 193.981374 
L 497.104242 193.791559 
L 499.668283 193.585277 
L 502.232323 193.360865 
L 504.796364 193.116438 
L 507.360404 192.849855 
L 509.924444 192.558677 
L 512.488485 192.240117 
L 515.052525 191.890979 
L 517.616566 191.507581 
L 520.180606 191.085674 
L 522.744646 190.620327 
L 525.308687 190.105799 
L 527.872727 189.53538 
L 530.436768 188.901185 
L 533.000808 188.193914 
L 535.564848 187.402541 
L 538.128889 186.513933 
L 540.692929 185.512359 
L 543.25697 184.378886 
L 545.82101 183.090598 
L 548.385051 181.619605 
L 550.949091 179.931782 
L 553.513131 177.985149 
L 556.077172 175.727807 
L 558.641212 173.095308 
L 561.205253 170.007365 
L 563.769293 166.363796 
L 566.333333 162.039765 
L 568.897374 156.880642 
L 571.461414 150.697519 
L 574.025455 143.265868 
L 576.589495 134.332698 
L 579.153535 123.642771 
L 581.717576 111.002523 
L 584.281616 96.409064 
L 586.845657 80.269136 
L 589.409697 63.687769 
L 591.973737 48.676055 
L 594.537778 37.947897 
L 597.101818 34.021818 
" clip-path="url(#pa3968b8699)" style="fill: none; stroke: #1f77b4; stroke-width: 1.5; stroke-linecap: square"/>
   </g>
   <g id="patch_8">
    <path d="M 354.8 204.16 
L 354.8 25.92 
" style="fill: none; stroke: #000000; stroke-width: 0.8; stroke-linejoin: miter; stroke-linecap: square"/>
   </g>
   <g id="patch_9">
    <path d="M 608.64 204.16 
L 608.64 25.92 
" style="fill: none; stroke: #000000; stroke-width: 0.8; stroke-linejoin: miter; stroke-linecap: square"/>
   </g>
   <g id="patch_10">
    <path d="M 354.8 204.16 
L 608.64 204.16 
" style="fill: none; stroke: #000000; stroke-width: 0.8; stroke-linejoin: miter; stroke-linecap: square"/>
   </g>
   <g id="patch_11">
    <path d="M 354.8 25.92 
L 608.64 25.92 
" style="fill: none; stroke: #000000; stroke-width: 0.8; stroke-linejoin: miter; stroke-linecap: square"/>
   </g>
   <g id="text_26">
    <!-- Ey vs. Theta -->
    <g transform="translate(444.791875 19.92) scale(0.12 -0.12)">
     <use xlink:href="#DejaVuSans-45"/>
     <use xlink:href="#DejaVuSans-79" x="63.183594"/>
     <use xlink:href="#DejaVuSans-20" x="122.363281"/>
     <use xlink:href="#DejaVuSans-76" x="154.150391"/>
     <use xlink:href="#DejaVuSans-73" x="213.330078"/>
     <use xlink:href="#DejaVuSans-2e" x="265.429688"/>
     <use xlink:href="#DejaVuSans-20" x="297.216797"/>
     <use xlink:href="#DejaVuSans-54" x="329.003906"/>
     <use xlink:href="#DejaVuSans-68" x="390.087891"/>
     <use xlink:href="#DejaVuSans-65" x="453.466797"/>
     <use xlink:href="#DejaVuSans-74" x="514.990234"/>
     <use xlink:href="#DejaVuSans-61" x="554.199219"/>
    </g>
   </g>
  </g>
  <g id="axes_3">
   <g id="patch_12">
    <path d="M 659.12 204.16 
L 912.96 204.16 
L 912.96 25.92 
L 659.12 25.92 
z
" style="fill: #ffffff"/>
   </g>
   <g id="matplotlib.axis_5">
    <g id="xtick_11">
     <g id="line2d_23">
      <g>
       <use xlink:href="#mdecebe8ed6" x="670.658182" y="204.16" style="stroke: #000000; stroke-width: 0.8"/>
      </g>
     </g>
     <g id="text_27">
      <!-- 0 -->
      <g transform="translate(667.476932 218.758437) scale(0.1 -0.1)">
       <use xlink:href="#DejaVuSans-30"/>
      </g>
     </g>
    </g>
    <g id="xtick_12">
     <g id="line2d_24">
      <g>
       <use xlink:href="#mdecebe8ed6" x="721.93899" y="204.16" style="stroke: #000000; stroke-width: 0.8"/>
      </g>
     </g>
     <g id="text_28">
      <!-- 20 -->
      <g transform="translate(715.57649 218.758437) scale(0.1 -0.1)">
       <use xlink:href="#DejaVuSans-32"/>
       <use xlink:href="#DejaVuSans-30" x="63.623047"/>
      </g>
     </g>
    </g>
    <g id="xtick_13">
     <g id="line2d_25">
      <g>
       <use xlink:href="#mdecebe8ed6" x="773.219798" y="204.16" style="stroke: #000000; stroke-width: 0.8"/>
      </g>
     </g>
     <g id="text_29">
      <!-- 40 -->
      <g transform="translate(766.857298 218.758437) scale(0.1 -0.1)">
       <use xlink:href="#DejaVuSans-34"/>
       <use xlink:href="#DejaVuSans-30" x="63.623047"/>
      </g>
     </g>
    </g>
    <g id="xtick_14">
     <g id="line2d_26">
      <g>
       <use xlink:href="#mdecebe8ed6" x="824.500606" y="204.16" style="stroke: #000000; stroke-width: 0.8"/>
      </g>
     </g>
     <g id="text_30">
      <!-- 60 -->
      <g transform="translate(818.138106 218.758437) scale(0.1 -0.1)">
       <use xlink:href="#DejaVuSans-36"/>
       <use xlink:href="#DejaVuSans-30" x="63.623047"/>
      </g>
     </g>
    </g>
    <g id="xtick_15">
     <g id="line2d_27">
      <g>
       <use xlink:href="#mdecebe8ed6" x="875.781414" y="204.16" style="stroke: #000000; stroke-width: 0.8"/>
      </g>
     </g>
     <g id="text_31">
      <!-- 80 -->
      <g transform="translate(869.418914 218.758437) scale(0.1 -0.1)">
       <use xlink:href="#DejaVuSans-38"/>
       <use xlink:href="#DejaVuSans-30" x="63.623047"/>
      </g>
     </g>
    </g>
    <g id="text_32">
     <!-- Theta (degrees) -->
     <g transform="translate(746.100156 232.436562) scale(0.1 -0.1)">
      <use xlink:href="#DejaVuSans-54"/>
      <use xlink:href="#DejaVuSans-68" x="61.083984"/>
      <use xlink:href="#DejaVuSans-65" x="124.462891"/>
      <use xlink:href="#DejaVuSans-74" x="185.986328"/>
      <use xlink:href="#DejaVuSans-61" x="225.195312"/>
      <use xlink:href="#DejaVuSans-20" x="286.474609"/>
      <use xlink:href="#DejaVuSans-28" x="318.261719"/>
      <use xlink:href="#DejaVuSans-64" x="357.275391"/>
      <use xlink:href="#DejaVuSans-65" x="420.751953"/>
      <use xlink:href="#DejaVuSans-67" x="482.275391"/>
      <use xlink:href="#DejaVuSans-72" x="545.751953"/>
      <use xlink:href="#DejaVuSans-65" x="584.615234"/>
      <use xlink:href="#DejaVuSans-65" x="646.138672"/>
      <use xlink:href="#DejaVuSans-73" x="707.662109"/>
      <use xlink:href="#DejaVuSans-29" x="759.761719"/>
     </g>
    </g>
   </g>
   <g id="matplotlib.axis_6">
    <g id="ytick_11">
     <g id="line2d_28">
      <g>
       <use xlink:href="#m440ceaa0fd" x="659.12" y="196.058182" style="stroke: #000000; stroke-width: 0.8"/>
      </g>
     </g>
     <g id="text_33">
      <!-- 2.5 -->
      <g transform="translate(636.216875 199.857401) scale(0.1 -0.1)">
       <use xlink:href="#DejaVuSans-32"/>
       <use xlink:href="#DejaVuSans-2e" x="63.623047"/>
       <use xlink:href="#DejaVuSans-35" x="95.410156"/>
      </g>
     </g>
    </g>
    <g id="ytick_12">
     <g id="line2d_29">
      <g>
       <use xlink:href="#m440ceaa0fd" x="659.12" y="161.189597" style="stroke: #000000; stroke-width: 0.8"/>
      </g>
     </g>
     <g id="text_34">
      <!-- 3.0 -->
      <g transform="translate(636.216875 164.988816) scale(0.1 -0.1)">
       <defs>
        <path id="DejaVuSans-33" d="M 2597 2516 
Q 3050 2419 3304 2112 
Q 3559 1806 3559 1356 
Q 3559 666 3084 287 
Q 2609 -91 1734 -91 
Q 1441 -91 1130 -33 
Q 819 25 488 141 
L 488 750 
Q 750 597 1062 519 
Q 1375 441 1716 441 
Q 2309 441 2620 675 
Q 2931 909 2931 1356 
Q 2931 1769 2642 2001 
Q 2353 2234 1838 2234 
L 1294 2234 
L 1294 2753 
L 1863 2753 
Q 2328 2753 2575 2939 
Q 2822 3125 2822 3475 
Q 2822 3834 2567 4026 
Q 2313 4219 1838 4219 
Q 1578 4219 1281 4162 
Q 984 4106 628 3988 
L 628 4550 
Q 988 4650 1302 4700 
Q 1616 4750 1894 4750 
Q 2613 4750 3031 4423 
Q 3450 4097 3450 3541 
Q 3450 3153 3228 2886 
Q 3006 2619 2597 2516 
z
" transform="scale(0.015625)"/>
       </defs>
       <use xlink:href="#DejaVuSans-33"/>
       <use xlink:href="#DejaVuSans-2e" x="63.623047"/>
       <use xlink:href="#DejaVuSans-30" x="95.410156"/>
      </g>
     </g>
    </g>
    <g id="ytick_13">
     <g id="line2d_30">
      <g>
       <use xlink:href="#m440ceaa0fd" x="659.12" y="126.321013" style="stroke: #000000; stroke-width: 0.8"/>
      </g>
     </g>
     <g id="text_35">
      <!-- 3.5 -->
      <g transform="translate(636.216875 130.120231) scale(0.1 -0.1)">
       <use xlink:href="#DejaVuSans-33"/>
       <use xlink:href="#DejaVuSans-2e" x="63.623047"/>
       <use xlink:href="#DejaVuSans-35" x="95.410156"/>
      </g>
     </g>
    </g>
    <g id="ytick_14">
     <g id="line2d_31">
      <g>
       <use xlink:href="#m440ceaa0fd" x="659.12" y="91.452428" style="stroke: #000000; stroke-width: 0.8"/>
      </g>
     </g>
     <g id="text_36">
      <!-- 4.0 -->
      <g transform="translate(636.216875 95.251647) scale(0.1 -0.1)">
       <use xlink:href="#DejaVuSans-34"/>
       <use xlink:href="#DejaVuSans-2e" x="63.623047"/>
       <use xlink:href="#DejaVuSans-30" x="95.410156"/>
      </g>
     </g>
    </g>
    <g id="ytick_15">
     <g id="line2d_32">
      <g>
       <use xlink:href="#m440ceaa0fd" x="659.12" y="56.583843" style="stroke: #000000; stroke-width: 0.8"/>
      </g>
     </g>
     <g id="text_37">
      <!-- 4.5 -->
      <g transform="translate(636.216875 60.383062) scale(0.1 -0.1)">
       <use xlink:href="#DejaVuSans-34"/>
       <use xlink:href="#DejaVuSans-2e" x="63.623047"/>
       <use xlink:href="#DejaVuSans-35" x="95.410156"/>
      </g>
     </g>
    </g>
    <g id="text_38">
     <!-- Gxy (GPa) -->
     <g transform="translate(630.137187 140.051719) rotate(-90) scale(0.1 -0.1)">
      <use xlink:href="#DejaVuSans-47"/>
      <use xlink:href="#DejaVuSans-78" x="77.490234"/>
      <use xlink:href="#DejaVuSans-79" x="136.669922"/>
      <use xlink:href="#DejaVuSans-20" x="195.849609"/>
      <use xlink:href="#DejaVuSans-28" x="227.636719"/>
      <use xlink:href="#DejaVuSans-47" x="266.650391"/>
      <use xlink:href="#DejaVuSans-50" x="344.140625"/>
      <use xlink:href="#DejaVuSans-61" x="399.943359"/>
      <use xlink:href="#DejaVuSans-29" x="461.222656"/>
     </g>
    </g>
   </g>
   <g id="line2d_33">
    <path d="M 670.658182 196.058182 
L 673.222222 195.955833 
L 675.786263 195.648567 
L 678.350303 195.13572 
L 680.914343 194.416196 
L 683.478384 193.488481 
L 686.042424 192.350656 
L 688.606465 191.000428 
L 691.170505 189.435159 
L 693.734545 187.65191 
L 696.298586 185.647491 
L 698.862626 183.418527 
L 701.426667 180.961533 
L 703.990707 178.273011 
L 706.554747 175.349559 
L 709.118788 172.188007 
L 711.682828 168.785576 
L 714.246869 165.140062 
L 716.810909 161.250054 
L 719.374949 157.115183 
L 721.93899 152.736408 
L 724.50303 148.116338 
L 727.067071 143.259595 
L 729.631111 138.173213 
L 732.195152 132.867068 
L 734.759192 127.35434 
L 737.323232 121.651991 
L 739.887273 115.781241 
L 742.451313 109.76804 
L 745.015354 103.643485 
L 747.579394 97.444166 
L 750.143434 91.212408 
L 752.707475 84.996355 
L 755.271515 78.849851 
L 757.835556 72.832092 
L 760.399596 67.006986 
L 762.963636 61.442207 
L 765.527677 56.207924 
L 768.091717 51.375213 
L 770.655758 47.01419 
L 773.219798 43.191919 
L 775.783838 39.970208 
L 778.347879 37.403389 
L 780.911919 35.53624 
L 783.47596 34.402169 
L 786.04 34.021818 
L 788.60404 34.402169 
L 791.168081 35.53624 
L 793.732121 37.403389 
L 796.296162 39.970208 
L 798.860202 43.191919 
L 801.424242 47.01419 
L 803.988283 51.375213 
L 806.552323 56.207924 
L 809.116364 61.442207 
L 811.680404 67.006986 
L 814.244444 72.832092 
L 816.808485 78.849851 
L 819.372525 84.996355 
L 821.936566 91.212408 
L 824.500606 97.444166 
L 827.064646 103.643485 
L 829.628687 109.76804 
L 832.192727 115.781241 
L 834.756768 121.651991 
L 837.320808 127.35434 
L 839.884848 132.867068 
L 842.448889 138.173213 
L 845.012929 143.259595 
L 847.57697 148.116338 
L 850.14101 152.736408 
L 852.705051 157.115183 
L 855.269091 161.250054 
L 857.833131 165.140062 
L 860.397172 168.785576 
L 862.961212 172.188007 
L 865.525253 175.349559 
L 868.089293 178.273011 
L 870.653333 180.961533 
L 873.217374 183.418527 
L 875.781414 185.647491 
L 878.345455 187.65191 
L 880.909495 189.435159 
L 883.473535 191.000428 
L 886.037576 192.350656 
L 888.601616 193.488481 
L 891.165657 194.416196 
L 893.729697 195.13572 
L 896.293737 195.648567 
L 898.857778 195.955833 
L 901.421818 196.058182 
" clip-path="url(#p973863792f)" style="fill: none; stroke: #1f77b4; stroke-width: 1.5; stroke-linecap: square"/>
   </g>
   <g id="patch_13">
    <path d="M 659.12 204.16 
L 659.12 25.92 
" style="fill: none; stroke: #000000; stroke-width: 0.8; stroke-linejoin: miter; stroke-linecap: square"/>
   </g>
   <g id="patch_14">
    <path d="M 912.96 204.16 
L 912.96 25.92 
" style="fill: none; stroke: #000000; stroke-width: 0.8; stroke-linejoin: miter; stroke-linecap: square"/>
   </g>
   <g id="patch_15">
    <path d="M 659.12 204.16 
L 912.96 204.16 
" style="fill: none; stroke: #000000; stroke-width: 0.8; stroke-linejoin: miter; stroke-linecap: square"/>
   </g>
   <g id="patch_16">
    <path d="M 659.12 25.92 
L 912.96 25.92 
" style="fill: none; stroke: #000000; stroke-width: 0.8; stroke-linejoin: miter; stroke-linecap: square"/>
   </g>
   <g id="text_39">
    <!-- Gxy vs. Theta -->
    <g transform="translate(744.702812 19.92) scale(0.12 -0.12)">
     <use xlink:href="#DejaVuSans-47"/>
     <use xlink:href="#DejaVuSans-78" x="77.490234"/>
     <use xlink:href="#DejaVuSans-79" x="136.669922"/>
     <use xlink:href="#DejaVuSans-20" x="195.849609"/>
     <use xlink:href="#DejaVuSans-76" x="227.636719"/>
     <use xlink:href="#DejaVuSans-73" x="286.816406"/>
     <use xlink:href="#DejaVuSans-2e" x="338.916016"/>
     <use xlink:href="#DejaVuSans-20" x="370.703125"/>
     <use xlink:href="#DejaVuSans-54" x="402.490234"/>
     <use xlink:href="#DejaVuSans-68" x="463.574219"/>
     <use xlink:href="#DejaVuSans-65" x="526.953125"/>
     <use xlink:href="#DejaVuSans-74" x="588.476562"/>
     <use xlink:href="#DejaVuSans-61" x="627.685547"/>
    </g>
   </g>
  </g>
  <g id="axes_4">
   <g id="patch_17">
    <path d="M 50.48 438.52 
L 304.32 438.52 
L 304.32 260.28 
L 50.48 260.28 
z
" style="fill: #ffffff"/>
   </g>
   <g id="matplotlib.axis_7">
    <g id="xtick_16">
     <g id="line2d_34">
      <g>
       <use xlink:href="#mdecebe8ed6" x="62.018182" y="438.52" style="stroke: #000000; stroke-width: 0.8"/>
      </g>
     </g>
     <g id="text_40">
      <!-- 0 -->
      <g transform="translate(58.836932 453.118437) scale(0.1 -0.1)">
       <use xlink:href="#DejaVuSans-30"/>
      </g>
     </g>
    </g>
    <g id="xtick_17">
     <g id="line2d_35">
      <g>
       <use xlink:href="#mdecebe8ed6" x="113.29899" y="438.52" style="stroke: #000000; stroke-width: 0.8"/>
      </g>
     </g>
     <g id="text_41">
      <!-- 20 -->
      <g transform="translate(106.93649 453.118437) scale(0.1 -0.1)">
       <use xlink:href="#DejaVuSans-32"/>
       <use xlink:href="#DejaVuSans-30" x="63.623047"/>
      </g>
     </g>
    </g>
    <g id="xtick_18">
     <g id="line2d_36">
      <g>
       <use xlink:href="#mdecebe8ed6" x="164.579798" y="438.52" style="stroke: #000000; stroke-width: 0.8"/>
      </g>
     </g>
     <g id="text_42">
      <!-- 40 -->
      <g transform="translate(158.217298 453.118437) scale(0.1 -0.1)">
       <use xlink:href="#DejaVuSans-34"/>
       <use xlink:href="#DejaVuSans-30" x="63.623047"/>
      </g>
     </g>
    </g>
    <g id="xtick_19">
     <g id="line2d_37">
      <g>
       <use xlink:href="#mdecebe8ed6" x="215.860606" y="438.52" style="stroke: #000000; stroke-width: 0.8"/>
      </g>
     </g>
     <g id="text_43">
      <!-- 60 -->
      <g transform="translate(209.498106 453.118437) scale(0.1 -0.1)">
       <use xlink:href="#DejaVuSans-36"/>
       <use xlink:href="#DejaVuSans-30" x="63.623047"/>
      </g>
     </g>
    </g>
    <g id="xtick_20">
     <g id="line2d_38">
      <g>
       <use xlink:href="#mdecebe8ed6" x="267.141414" y="438.52" style="stroke: #000000; stroke-width: 0.8"/>
      </g>
     </g>
     <g id="text_44">
      <!-- 80 -->
      <g transform="translate(260.778914 453.118437) scale(0.1 -0.1)">
       <use xlink:href="#DejaVuSans-38"/>
       <use xlink:href="#DejaVuSans-30" x="63.623047"/>
      </g>
     </g>
    </g>
    <g id="text_45">
     <!-- Theta (degrees) -->
     <g transform="translate(137.460156 466.796562) scale(0.1 -0.1)">
      <use xlink:href="#DejaVuSans-54"/>
      <use xlink:href="#DejaVuSans-68" x="61.083984"/>
      <use xlink:href="#DejaVuSans-65" x="124.462891"/>
      <use xlink:href="#DejaVuSans-74" x="185.986328"/>
      <use xlink:href="#DejaVuSans-61" x="225.195312"/>
      <use xlink:href="#DejaVuSans-20" x="286.474609"/>
      <use xlink:href="#DejaVuSans-28" x="318.261719"/>
      <use xlink:href="#DejaVuSans-64" x="357.275391"/>
      <use xlink:href="#DejaVuSans-65" x="420.751953"/>
      <use xlink:href="#DejaVuSans-67" x="482.275391"/>
      <use xlink:href="#DejaVuSans-72" x="545.751953"/>
      <use xlink:href="#DejaVuSans-65" x="584.615234"/>
      <use xlink:href="#DejaVuSans-65" x="646.138672"/>
      <use xlink:href="#DejaVuSans-73" x="707.662109"/>
      <use xlink:href="#DejaVuSans-29" x="759.761719"/>
     </g>
    </g>
   </g>
   <g id="matplotlib.axis_8">
    <g id="ytick_16">
     <g id="line2d_39">
      <g>
       <use xlink:href="#m440ceaa0fd" x="50.48" y="432.670085" style="stroke: #000000; stroke-width: 0.8"/>
      </g>
     </g>
     <g id="text_46">
      <!-- 0.0 -->
      <g transform="translate(27.576875 436.469303) scale(0.1 -0.1)">
       <use xlink:href="#DejaVuSans-30"/>
       <use xlink:href="#DejaVuSans-2e" x="63.623047"/>
       <use xlink:href="#DejaVuSans-30" x="95.410156"/>
      </g>
     </g>
    </g>
    <g id="ytick_17">
     <g id="line2d_40">
      <g>
       <use xlink:href="#m440ceaa0fd" x="50.48" y="395.738877" style="stroke: #000000; stroke-width: 0.8"/>
      </g>
     </g>
     <g id="text_47">
      <!-- 0.1 -->
      <g transform="translate(27.576875 399.538096) scale(0.1 -0.1)">
       <use xlink:href="#DejaVuSans-30"/>
       <use xlink:href="#DejaVuSans-2e" x="63.623047"/>
       <use xlink:href="#DejaVuSans-31" x="95.410156"/>
      </g>
     </g>
    </g>
    <g id="ytick_18">
     <g id="line2d_41">
      <g>
       <use xlink:href="#m440ceaa0fd" x="50.48" y="358.80767" style="stroke: #000000; stroke-width: 0.8"/>
      </g>
     </g>
     <g id="text_48">
      <!-- 0.2 -->
      <g transform="translate(27.576875 362.606889) scale(0.1 -0.1)">
       <use xlink:href="#DejaVuSans-30"/>
       <use xlink:href="#DejaVuSans-2e" x="63.623047"/>
       <use xlink:href="#DejaVuSans-32" x="95.410156"/>
      </g>
     </g>
    </g>
    <g id="ytick_19">
     <g id="line2d_42">
      <g>
       <use xlink:href="#m440ceaa0fd" x="50.48" y="321.876462" style="stroke: #000000; stroke-width: 0.8"/>
      </g>
     </g>
     <g id="text_49">
      <!-- 0.3 -->
      <g transform="translate(27.576875 325.675681) scale(0.1 -0.1)">
       <use xlink:href="#DejaVuSans-30"/>
       <use xlink:href="#DejaVuSans-2e" x="63.623047"/>
       <use xlink:href="#DejaVuSans-33" x="95.410156"/>
      </g>
     </g>
    </g>
    <g id="ytick_20">
     <g id="line2d_43">
      <g>
       <use xlink:href="#m440ceaa0fd" x="50.48" y="284.945255" style="stroke: #000000; stroke-width: 0.8"/>
      </g>
     </g>
     <g id="text_50">
      <!-- 0.4 -->
      <g transform="translate(27.576875 288.744474) scale(0.1 -0.1)">
       <use xlink:href="#DejaVuSans-30"/>
       <use xlink:href="#DejaVuSans-2e" x="63.623047"/>
       <use xlink:href="#DejaVuSans-34" x="95.410156"/>
      </g>
     </g>
    </g>
    <g id="text_51">
     <!-- nu_xy -->
     <g transform="translate(21.219062 364.15625) rotate(-90) scale(0.1 -0.1)">
      <defs>
       <path id="DejaVuSans-6e" d="M 3513 2113 
L 3513 0 
L 2938 0 
L 2938 2094 
Q 2938 2591 2744 2837 
Q 2550 3084 2163 3084 
Q 1697 3084 1428 2787 
Q 1159 2491 1159 1978 
L 1159 0 
L 581 0 
L 581 3500 
L 1159 3500 
L 1159 2956 
Q 1366 3272 1645 3428 
Q 1925 3584 2291 3584 
Q 2894 3584 3203 3211 
Q 3513 2838 3513 2113 
z
" transform="scale(0.015625)"/>
       <path id="DejaVuSans-75" d="M 544 1381 
L 544 3500 
L 1119 3500 
L 1119 1403 
Q 1119 906 1312 657 
Q 1506 409 1894 409 
Q 2359 409 2629 706 
Q 2900 1003 2900 1516 
L 2900 3500 
L 3475 3500 
L 3475 0 
L 2900 0 
L 2900 538 
Q 2691 219 2414 64 
Q 2138 -91 1772 -91 
Q 1169 -91 856 284 
Q 544 659 544 1381 
z
M 1991 3584 
L 1991 3584 
z
" transform="scale(0.015625)"/>
       <path id="DejaVuSans-5f" d="M 3263 -1063 
L 3263 -1509 
L -63 -1509 
L -63 -1063 
L 3263 -1063 
z
" transform="scale(0.015625)"/>
      </defs>
      <use xlink:href="#DejaVuSans-6e"/>
      <use xlink:href="#DejaVuSans-75" x="63.378906"/>
      <use xlink:href="#DejaVuSans-5f" x="126.757812"/>
      <use xlink:href="#DejaVuSans-78" x="176.757812"/>
      <use xlink:href="#DejaVuSans-79" x="235.9375"/>
     </g>
    </g>
   </g>
   <g id="line2d_44">
    <path d="M 62.018182 340.342066 
L 64.582222 338.187674 
L 67.146263 332.308164 
L 69.710303 324.103414 
L 72.274343 315.081933 
L 74.838384 306.361627 
L 77.402424 298.556834 
L 79.966465 291.893803 
L 82.530505 286.371137 
L 85.094545 281.881489 
L 87.658586 278.283261 
L 90.222626 275.436137 
L 92.786667 273.215647 
L 95.350707 271.517147 
L 97.914747 270.255072 
L 100.478788 269.36044 
L 103.042828 268.778 
L 105.606869 268.463575 
L 108.170909 268.381818 
L 110.734949 268.504371 
L 113.29899 268.808408 
L 115.86303 269.275479 
L 118.427071 269.890616 
L 120.991111 270.64162 
L 123.555152 271.51851 
L 126.119192 272.51309 
L 128.683232 273.618602 
L 131.247273 274.829454 
L 133.811313 276.141 
L 136.375354 277.549367 
L 138.939394 279.05131 
L 141.503434 280.644096 
L 144.067475 282.325406 
L 146.631515 284.093258 
L 149.195556 285.945938 
L 151.759596 287.881942 
L 154.323636 289.899925 
L 156.887677 291.99866 
L 159.451717 294.177001 
L 162.015758 296.433842 
L 164.579798 298.768094 
L 167.143838 301.178647 
L 169.707879 303.664351 
L 172.271919 306.223983 
L 174.83596 308.856227 
L 177.4 311.559647 
L 179.96404 314.332665 
L 182.528081 317.173537 
L 185.092121 320.080329 
L 187.656162 323.050899 
L 190.220202 326.08287 
L 192.784242 329.173609 
L 195.348283 332.320209 
L 197.912323 335.519464 
L 200.476364 338.767851 
L 203.040404 342.061511 
L 205.604444 345.396229 
L 208.168485 348.767417 
L 210.732525 352.170104 
L 213.296566 355.598916 
L 215.860606 359.048068 
L 218.424646 362.51136 
L 220.988687 365.982166 
L 223.552727 369.453438 
L 226.116768 372.917704 
L 228.680808 376.367082 
L 231.244848 379.793288 
L 233.808889 383.187654 
L 236.372929 386.541154 
L 238.93697 389.84443 
L 241.50101 393.087831 
L 244.065051 396.261453 
L 246.629091 399.355188 
L 249.193131 402.358778 
L 251.757172 405.261876 
L 254.321212 408.054114 
L 256.885253 410.725169 
L 259.449293 413.264847 
L 262.013333 415.663157 
L 264.577374 417.910394 
L 267.141414 419.997228 
L 269.705455 421.914782 
L 272.269495 423.65472 
L 274.833535 425.20933 
L 277.397576 426.571595 
L 279.961616 427.735275 
L 282.525657 428.694966 
L 285.089697 429.446164 
L 287.653737 429.98531 
L 290.217778 430.309834 
L 292.781818 430.418182 
" clip-path="url(#pae41d356b5)" style="fill: none; stroke: #1f77b4; stroke-width: 1.5; stroke-linecap: square"/>
   </g>
   <g id="patch_18">
    <path d="M 50.48 438.52 
L 50.48 260.28 
" style="fill: none; stroke: #000000; stroke-width: 0.8; stroke-linejoin: miter; stroke-linecap: square"/>
   </g>
   <g id="patch_19">
    <path d="M 304.32 438.52 
L 304.32 260.28 
" style="fill: none; stroke: #000000; stroke-width: 0.8; stroke-linejoin: miter; stroke-linecap: square"/>
   </g>
   <g id="patch_20">
    <path d="M 50.48 438.52 
L 304.32 438.52 
" style="fill: none; stroke: #000000; stroke-width: 0.8; stroke-linejoin: miter; stroke-linecap: square"/>
   </g>
   <g id="patch_21">
    <path d="M 50.48 260.28 
L 304.32 260.28 
" style="fill: none; stroke: #000000; stroke-width: 0.8; stroke-linejoin: miter; stroke-linecap: square"/>
   </g>
   <g id="text_52">
    <!-- nu_xy vs. Theta -->
    <g transform="translate(130.106875 254.28) scale(0.12 -0.12)">
     <use xlink:href="#DejaVuSans-6e"/>
     <use xlink:href="#DejaVuSans-75" x="63.378906"/>
     <use xlink:href="#DejaVuSans-5f" x="126.757812"/>
     <use xlink:href="#DejaVuSans-78" x="176.757812"/>
     <use xlink:href="#DejaVuSans-79" x="235.9375"/>
     <use xlink:href="#DejaVuSans-20" x="295.117188"/>
     <use xlink:href="#DejaVuSans-76" x="326.904297"/>
     <use xlink:href="#DejaVuSans-73" x="386.083984"/>
     <use xlink:href="#DejaVuSans-2e" x="438.183594"/>
     <use xlink:href="#DejaVuSans-20" x="469.970703"/>
     <use xlink:href="#DejaVuSans-54" x="501.757812"/>
     <use xlink:href="#DejaVuSans-68" x="562.841797"/>
     <use xlink:href="#DejaVuSans-65" x="626.220703"/>
     <use xlink:href="#DejaVuSans-74" x="687.744141"/>
     <use xlink:href="#DejaVuSans-61" x="726.953125"/>
    </g>
   </g>
  </g>
  <g id="axes_5">
   <g id="patch_22">
    <path d="M 354.8 438.52 
L 608.64 438.52 
L 608.64 260.28 
L 354.8 260.28 
z
" style="fill: #ffffff"/>
   </g>
   <g id="matplotlib.axis_9">
    <g id="xtick_21">
     <g id="line2d_45">
      <g>
       <use xlink:href="#mdecebe8ed6" x="366.338182" y="438.52" style="stroke: #000000; stroke-width: 0.8"/>
      </g>
     </g>
     <g id="text_53">
      <!-- 0 -->
      <g transform="translate(363.156932 453.118437) scale(0.1 -0.1)">
       <use xlink:href="#DejaVuSans-30"/>
      </g>
     </g>
    </g>
    <g id="xtick_22">
     <g id="line2d_46">
      <g>
       <use xlink:href="#mdecebe8ed6" x="417.61899" y="438.52" style="stroke: #000000; stroke-width: 0.8"/>
      </g>
     </g>
     <g id="text_54">
      <!-- 20 -->
      <g transform="translate(411.25649 453.118437) scale(0.1 -0.1)">
       <use xlink:href="#DejaVuSans-32"/>
       <use xlink:href="#DejaVuSans-30" x="63.623047"/>
      </g>
     </g>
    </g>
    <g id="xtick_23">
     <g id="line2d_47">
      <g>
       <use xlink:href="#mdecebe8ed6" x="468.899798" y="438.52" style="stroke: #000000; stroke-width: 0.8"/>
      </g>
     </g>
     <g id="text_55">
      <!-- 40 -->
      <g transform="translate(462.537298 453.118437) scale(0.1 -0.1)">
       <use xlink:href="#DejaVuSans-34"/>
       <use xlink:href="#DejaVuSans-30" x="63.623047"/>
      </g>
     </g>
    </g>
    <g id="xtick_24">
     <g id="line2d_48">
      <g>
       <use xlink:href="#mdecebe8ed6" x="520.180606" y="438.52" style="stroke: #000000; stroke-width: 0.8"/>
      </g>
     </g>
     <g id="text_56">
      <!-- 60 -->
      <g transform="translate(513.818106 453.118437) scale(0.1 -0.1)">
       <use xlink:href="#DejaVuSans-36"/>
       <use xlink:href="#DejaVuSans-30" x="63.623047"/>
      </g>
     </g>
    </g>
    <g id="xtick_25">
     <g id="line2d_49">
      <g>
       <use xlink:href="#mdecebe8ed6" x="571.461414" y="438.52" style="stroke: #000000; stroke-width: 0.8"/>
      </g>
     </g>
     <g id="text_57">
      <!-- 80 -->
      <g transform="translate(565.098914 453.118437) scale(0.1 -0.1)">
       <use xlink:href="#DejaVuSans-38"/>
       <use xlink:href="#DejaVuSans-30" x="63.623047"/>
      </g>
     </g>
    </g>
    <g id="text_58">
     <!-- Theta (degrees) -->
     <g transform="translate(441.780156 466.796562) scale(0.1 -0.1)">
      <use xlink:href="#DejaVuSans-54"/>
      <use xlink:href="#DejaVuSans-68" x="61.083984"/>
      <use xlink:href="#DejaVuSans-65" x="124.462891"/>
      <use xlink:href="#DejaVuSans-74" x="185.986328"/>
      <use xlink:href="#DejaVuSans-61" x="225.195312"/>
      <use xlink:href="#DejaVuSans-20" x="286.474609"/>
      <use xlink:href="#DejaVuSans-28" x="318.261719"/>
      <use xlink:href="#DejaVuSans-64" x="357.275391"/>
      <use xlink:href="#DejaVuSans-65" x="420.751953"/>
      <use xlink:href="#DejaVuSans-67" x="482.275391"/>
      <use xlink:href="#DejaVuSans-72" x="545.751953"/>
      <use xlink:href="#DejaVuSans-65" x="584.615234"/>
      <use xlink:href="#DejaVuSans-65" x="646.138672"/>
      <use xlink:href="#DejaVuSans-73" x="707.662109"/>
      <use xlink:href="#DejaVuSans-29" x="759.761719"/>
     </g>
    </g>
   </g>
   <g id="matplotlib.axis_10">
    <g id="ytick_21">
     <g id="line2d_50">
      <g>
       <use xlink:href="#m440ceaa0fd" x="354.8" y="416.164724" style="stroke: #000000; stroke-width: 0.8"/>
      </g>
     </g>
     <g id="text_59">
      <!-- 4 -->
      <g transform="translate(333.057813 419.963943) scale(0.1 -0.1)">
       <defs>
        <path id="DejaVuSans-2212" d="M 678 2272 
L 4684 2272 
L 4684 1741 
L 678 1741 
L 678 2272 
z
" transform="scale(0.015625)"/>
       </defs>
       <use xlink:href="#DejaVuSans-2212"/>
       <use xlink:href="#DejaVuSans-34" x="83.789062"/>
      </g>
     </g>
    </g>
    <g id="ytick_22">
     <g id="line2d_51">
      <g>
       <use xlink:href="#m440ceaa0fd" x="354.8" y="379.218998" style="stroke: #000000; stroke-width: 0.8"/>
      </g>
     </g>
     <g id="text_60">
      <!-- 3 -->
      <g transform="translate(333.057813 383.018216) scale(0.1 -0.1)">
       <use xlink:href="#DejaVuSans-2212"/>
       <use xlink:href="#DejaVuSans-33" x="83.789062"/>
      </g>
     </g>
    </g>
    <g id="ytick_23">
     <g id="line2d_52">
      <g>
       <use xlink:href="#m440ceaa0fd" x="354.8" y="342.273271" style="stroke: #000000; stroke-width: 0.8"/>
      </g>
     </g>
     <g id="text_61">
      <!-- 2 -->
      <g transform="translate(333.057813 346.07249) scale(0.1 -0.1)">
       <use xlink:href="#DejaVuSans-2212"/>
       <use xlink:href="#DejaVuSans-32" x="83.789062"/>
      </g>
     </g>
    </g>
    <g id="ytick_24">
     <g id="line2d_53">
      <g>
       <use xlink:href="#m440ceaa0fd" x="354.8" y="305.327545" style="stroke: #000000; stroke-width: 0.8"/>
      </g>
     </g>
     <g id="text_62">
      <!-- 1 -->
      <g transform="translate(333.057813 309.126763) scale(0.1 -0.1)">
       <use xlink:href="#DejaVuSans-2212"/>
       <use xlink:href="#DejaVuSans-31" x="83.789062"/>
      </g>
     </g>
    </g>
    <g id="ytick_25">
     <g id="line2d_54">
      <g>
       <use xlink:href="#m440ceaa0fd" x="354.8" y="268.381818" style="stroke: #000000; stroke-width: 0.8"/>
      </g>
     </g>
     <g id="text_63">
      <!-- 0 -->
      <g transform="translate(341.4375 272.181037) scale(0.1 -0.1)">
       <use xlink:href="#DejaVuSans-30"/>
      </g>
     </g>
    </g>
    <g id="text_64">
     <!-- eta_xs -->
     <g transform="translate(326.7 365.564844) rotate(-90) scale(0.1 -0.1)">
      <use xlink:href="#DejaVuSans-65"/>
      <use xlink:href="#DejaVuSans-74" x="61.523438"/>
      <use xlink:href="#DejaVuSans-61" x="100.732422"/>
      <use xlink:href="#DejaVuSans-5f" x="162.011719"/>
      <use xlink:href="#DejaVuSans-78" x="212.011719"/>
      <use xlink:href="#DejaVuSans-73" x="271.191406"/>
     </g>
    </g>
   </g>
   <g id="line2d_55">
    <path d="M 366.338182 268.381818 
L 368.902222 318.408261 
L 371.466263 361.673772 
L 374.030303 394.128961 
L 376.594343 415.144915 
L 379.158384 426.405963 
L 381.722424 430.418182 
L 384.286465 429.54022 
L 386.850505 425.610804 
L 389.414545 419.924308 
L 391.978586 413.336811 
L 394.542626 406.390498 
L 397.106667 399.416316 
L 399.670707 392.608134 
L 402.234747 386.072934 
L 404.798788 379.86363 
L 407.362828 374.000095 
L 409.926869 368.482494 
L 412.490909 363.299656 
L 415.054949 358.434294 
L 417.61899 353.866227 
L 420.18303 349.574338 
L 422.747071 345.537737 
L 425.311111 341.736421 
L 427.875152 338.151624 
L 430.439192 334.76597 
L 433.003232 331.563513 
L 435.567273 328.529708 
L 438.131313 325.651335 
L 440.695354 322.916413 
L 443.259394 320.314104 
L 445.823434 317.834609 
L 448.387475 315.469078 
L 450.951515 313.209516 
L 453.515556 311.048704 
L 456.079596 308.980123 
L 458.643636 306.997884 
L 461.207677 305.096666 
L 463.771717 303.271664 
L 466.335758 301.518536 
L 468.899798 299.833361 
L 471.463838 298.212598 
L 474.027879 296.653051 
L 476.591919 295.151837 
L 479.15596 293.706358 
L 481.72 292.314273 
L 484.28404 290.973478 
L 486.848081 289.682083 
L 489.412121 288.438393 
L 491.976162 287.240891 
L 494.540202 286.08822 
L 497.104242 284.979172 
L 499.668283 283.912668 
L 502.232323 282.887752 
L 504.796364 281.903572 
L 507.360404 280.959373 
L 509.924444 280.054482 
L 512.488485 279.1883 
L 515.052525 278.360289 
L 517.616566 277.569962 
L 520.180606 276.816874 
L 522.744646 276.10061 
L 525.308687 275.420775 
L 527.872727 274.776984 
L 530.436768 274.168852 
L 533.000808 273.595985 
L 535.564848 273.057967 
L 538.128889 272.554353 
L 540.692929 272.084658 
L 543.25697 271.64835 
L 545.82101 271.244836 
L 548.385051 270.873458 
L 550.949091 270.533483 
L 553.513131 270.224095 
L 556.077172 269.944392 
L 558.641212 269.693374 
L 561.205253 269.469944 
L 563.769293 269.272901 
L 566.333333 269.10094 
L 568.897374 268.952648 
L 571.461414 268.826509 
L 574.025455 268.720899 
L 576.589495 268.634096 
L 579.153535 268.564281 
L 581.717576 268.509546 
L 584.281616 268.467901 
L 586.845657 268.43728 
L 589.409697 268.415558 
L 591.973737 268.400557 
L 594.537778 268.390059 
L 597.101818 268.381818 
" clip-path="url(#pea85090c6b)" style="fill: none; stroke: #1f77b4; stroke-width: 1.5; stroke-linecap: square"/>
   </g>
   <g id="patch_23">
    <path d="M 354.8 438.52 
L 354.8 260.28 
" style="fill: none; stroke: #000000; stroke-width: 0.8; stroke-linejoin: miter; stroke-linecap: square"/>
   </g>
   <g id="patch_24">
    <path d="M 608.64 438.52 
L 608.64 260.28 
" style="fill: none; stroke: #000000; stroke-width: 0.8; stroke-linejoin: miter; stroke-linecap: square"/>
   </g>
   <g id="patch_25">
    <path d="M 354.8 438.52 
L 608.64 438.52 
" style="fill: none; stroke: #000000; stroke-width: 0.8; stroke-linejoin: miter; stroke-linecap: square"/>
   </g>
   <g id="patch_26">
    <path d="M 354.8 260.28 
L 608.64 260.28 
" style="fill: none; stroke: #000000; stroke-width: 0.8; stroke-linejoin: miter; stroke-linecap: square"/>
   </g>
   <g id="text_65">
    <!-- eta_xs vs. Theta -->
    <g transform="translate(432.736563 254.28) scale(0.12 -0.12)">
     <use xlink:href="#DejaVuSans-65"/>
     <use xlink:href="#DejaVuSans-74" x="61.523438"/>
     <use xlink:href="#DejaVuSans-61" x="100.732422"/>
     <use xlink:href="#DejaVuSans-5f" x="162.011719"/>
     <use xlink:href="#DejaVuSans-78" x="212.011719"/>
     <use xlink:href="#DejaVuSans-73" x="271.191406"/>
     <use xlink:href="#DejaVuSans-20" x="323.291016"/>
     <use xlink:href="#DejaVuSans-76" x="355.078125"/>
     <use xlink:href="#DejaVuSans-73" x="414.257812"/>
     <use xlink:href="#DejaVuSans-2e" x="466.357422"/>
     <use xlink:href="#DejaVuSans-20" x="498.144531"/>
     <use xlink:href="#DejaVuSans-54" x="529.931641"/>
     <use xlink:href="#DejaVuSans-68" x="591.015625"/>
     <use xlink:href="#DejaVuSans-65" x="654.394531"/>
     <use xlink:href="#DejaVuSans-74" x="715.917969"/>
     <use xlink:href="#DejaVuSans-61" x="755.126953"/>
    </g>
   </g>
  </g>
  <g id="axes_6">
   <g id="patch_27">
    <path d="M 659.12 438.52 
L 912.96 438.52 
L 912.96 260.28 
L 659.12 260.28 
z
" style="fill: #ffffff"/>
   </g>
   <g id="matplotlib.axis_11">
    <g id="xtick_26">
     <g id="line2d_56">
      <g>
       <use xlink:href="#mdecebe8ed6" x="670.658182" y="438.52" style="stroke: #000000; stroke-width: 0.8"/>
      </g>
     </g>
     <g id="text_66">
      <!-- 0 -->
      <g transform="translate(667.476932 453.118437) scale(0.1 -0.1)">
       <use xlink:href="#DejaVuSans-30"/>
      </g>
     </g>
    </g>
    <g id="xtick_27">
     <g id="line2d_57">
      <g>
       <use xlink:href="#mdecebe8ed6" x="721.93899" y="438.52" style="stroke: #000000; stroke-width: 0.8"/>
      </g>
     </g>
     <g id="text_67">
      <!-- 20 -->
      <g transform="translate(715.57649 453.118437) scale(0.1 -0.1)">
       <use xlink:href="#DejaVuSans-32"/>
       <use xlink:href="#DejaVuSans-30" x="63.623047"/>
      </g>
     </g>
    </g>
    <g id="xtick_28">
     <g id="line2d_58">
      <g>
       <use xlink:href="#mdecebe8ed6" x="773.219798" y="438.52" style="stroke: #000000; stroke-width: 0.8"/>
      </g>
     </g>
     <g id="text_68">
      <!-- 40 -->
      <g transform="translate(766.857298 453.118437) scale(0.1 -0.1)">
       <use xlink:href="#DejaVuSans-34"/>
       <use xlink:href="#DejaVuSans-30" x="63.623047"/>
      </g>
     </g>
    </g>
    <g id="xtick_29">
     <g id="line2d_59">
      <g>
       <use xlink:href="#mdecebe8ed6" x="824.500606" y="438.52" style="stroke: #000000; stroke-width: 0.8"/>
      </g>
     </g>
     <g id="text_69">
      <!-- 60 -->
      <g transform="translate(818.138106 453.118437) scale(0.1 -0.1)">
       <use xlink:href="#DejaVuSans-36"/>
       <use xlink:href="#DejaVuSans-30" x="63.623047"/>
      </g>
     </g>
    </g>
    <g id="xtick_30">
     <g id="line2d_60">
      <g>
       <use xlink:href="#mdecebe8ed6" x="875.781414" y="438.52" style="stroke: #000000; stroke-width: 0.8"/>
      </g>
     </g>
     <g id="text_70">
      <!-- 80 -->
      <g transform="translate(869.418914 453.118437) scale(0.1 -0.1)">
       <use xlink:href="#DejaVuSans-38"/>
       <use xlink:href="#DejaVuSans-30" x="63.623047"/>
      </g>
     </g>
    </g>
    <g id="text_71">
     <!-- Theta (degrees) -->
     <g transform="translate(746.100156 466.796562) scale(0.1 -0.1)">
      <use xlink:href="#DejaVuSans-54"/>
      <use xlink:href="#DejaVuSans-68" x="61.083984"/>
      <use xlink:href="#DejaVuSans-65" x="124.462891"/>
      <use xlink:href="#DejaVuSans-74" x="185.986328"/>
      <use xlink:href="#DejaVuSans-61" x="225.195312"/>
      <use xlink:href="#DejaVuSans-20" x="286.474609"/>
      <use xlink:href="#DejaVuSans-28" x="318.261719"/>
      <use xlink:href="#DejaVuSans-64" x="357.275391"/>
      <use xlink:href="#DejaVuSans-65" x="420.751953"/>
      <use xlink:href="#DejaVuSans-67" x="482.275391"/>
      <use xlink:href="#DejaVuSans-72" x="545.751953"/>
      <use xlink:href="#DejaVuSans-65" x="584.615234"/>
      <use xlink:href="#DejaVuSans-65" x="646.138672"/>
      <use xlink:href="#DejaVuSans-73" x="707.662109"/>
      <use xlink:href="#DejaVuSans-29" x="759.761719"/>
     </g>
    </g>
   </g>
   <g id="matplotlib.axis_12">
    <g id="ytick_26">
     <g id="line2d_61">
      <g>
       <use xlink:href="#m440ceaa0fd" x="659.12" y="416.164724" style="stroke: #000000; stroke-width: 0.8"/>
      </g>
     </g>
     <g id="text_72">
      <!-- 4 -->
      <g transform="translate(637.377813 419.963943) scale(0.1 -0.1)">
       <use xlink:href="#DejaVuSans-2212"/>
       <use xlink:href="#DejaVuSans-34" x="83.789062"/>
      </g>
     </g>
    </g>
    <g id="ytick_27">
     <g id="line2d_62">
      <g>
       <use xlink:href="#m440ceaa0fd" x="659.12" y="379.218998" style="stroke: #000000; stroke-width: 0.8"/>
      </g>
     </g>
     <g id="text_73">
      <!-- 3 -->
      <g transform="translate(637.377813 383.018216) scale(0.1 -0.1)">
       <use xlink:href="#DejaVuSans-2212"/>
       <use xlink:href="#DejaVuSans-33" x="83.789062"/>
      </g>
     </g>
    </g>
    <g id="ytick_28">
     <g id="line2d_63">
      <g>
       <use xlink:href="#m440ceaa0fd" x="659.12" y="342.273271" style="stroke: #000000; stroke-width: 0.8"/>
      </g>
     </g>
     <g id="text_74">
      <!-- 2 -->
      <g transform="translate(637.377813 346.07249) scale(0.1 -0.1)">
       <use xlink:href="#DejaVuSans-2212"/>
       <use xlink:href="#DejaVuSans-32" x="83.789062"/>
      </g>
     </g>
    </g>
    <g id="ytick_29">
     <g id="line2d_64">
      <g>
       <use xlink:href="#m440ceaa0fd" x="659.12" y="305.327545" style="stroke: #000000; stroke-width: 0.8"/>
      </g>
     </g>
     <g id="text_75">
      <!-- 1 -->
      <g transform="translate(637.377813 309.126763) scale(0.1 -0.1)">
       <use xlink:href="#DejaVuSans-2212"/>
       <use xlink:href="#DejaVuSans-31" x="83.789062"/>
      </g>
     </g>
    </g>
    <g id="ytick_30">
     <g id="line2d_65">
      <g>
       <use xlink:href="#m440ceaa0fd" x="659.12" y="268.381818" style="stroke: #000000; stroke-width: 0.8"/>
      </g>
     </g>
     <g id="text_76">
      <!-- 0 -->
      <g transform="translate(645.7575 272.181037) scale(0.1 -0.1)">
       <use xlink:href="#DejaVuSans-30"/>
      </g>
     </g>
    </g>
    <g id="text_77">
     <!-- eta_ys -->
     <g transform="translate(631.02 365.564844) rotate(-90) scale(0.1 -0.1)">
      <use xlink:href="#DejaVuSans-65"/>
      <use xlink:href="#DejaVuSans-74" x="61.523438"/>
      <use xlink:href="#DejaVuSans-61" x="100.732422"/>
      <use xlink:href="#DejaVuSans-5f" x="162.011719"/>
      <use xlink:href="#DejaVuSans-79" x="212.011719"/>
      <use xlink:href="#DejaVuSans-73" x="271.191406"/>
     </g>
    </g>
   </g>
   <g id="line2d_66">
    <path d="M 670.658182 268.381818 
L 673.222222 268.390059 
L 675.786263 268.400557 
L 678.350303 268.415558 
L 680.914343 268.43728 
L 683.478384 268.467901 
L 686.042424 268.509546 
L 688.606465 268.564281 
L 691.170505 268.634096 
L 693.734545 268.720899 
L 696.298586 268.826509 
L 698.862626 268.952648 
L 701.426667 269.10094 
L 703.990707 269.272901 
L 706.554747 269.469944 
L 709.118788 269.693374 
L 711.682828 269.944392 
L 714.246869 270.224095 
L 716.810909 270.533483 
L 719.374949 270.873458 
L 721.93899 271.244836 
L 724.50303 271.64835 
L 727.067071 272.084658 
L 729.631111 272.554353 
L 732.195152 273.057967 
L 734.759192 273.595985 
L 737.323232 274.168852 
L 739.887273 274.776984 
L 742.451313 275.420775 
L 745.015354 276.10061 
L 747.579394 276.816874 
L 750.143434 277.569962 
L 752.707475 278.360289 
L 755.271515 279.1883 
L 757.835556 280.054482 
L 760.399596 280.959373 
L 762.963636 281.903572 
L 765.527677 282.887752 
L 768.091717 283.912668 
L 770.655758 284.979172 
L 773.219798 286.08822 
L 775.783838 287.240891 
L 778.347879 288.438393 
L 780.911919 289.682083 
L 783.47596 290.973478 
L 786.04 292.314273 
L 788.60404 293.706358 
L 791.168081 295.151837 
L 793.732121 296.653051 
L 796.296162 298.212598 
L 798.860202 299.833361 
L 801.424242 301.518536 
L 803.988283 303.271664 
L 806.552323 305.096666 
L 809.116364 306.997884 
L 811.680404 308.980123 
L 814.244444 311.048704 
L 816.808485 313.209516 
L 819.372525 315.469078 
L 821.936566 317.834609 
L 824.500606 320.314104 
L 827.064646 322.916413 
L 829.628687 325.651335 
L 832.192727 328.529708 
L 834.756768 331.563513 
L 837.320808 334.76597 
L 839.884848 338.151624 
L 842.448889 341.736421 
L 845.012929 345.537737 
L 847.57697 349.574338 
L 850.14101 353.866227 
L 852.705051 358.434294 
L 855.269091 363.299656 
L 857.833131 368.482494 
L 860.397172 374.000095 
L 862.961212 379.86363 
L 865.525253 386.072934 
L 868.089293 392.608134 
L 870.653333 399.416316 
L 873.217374 406.390498 
L 875.781414 413.336811 
L 878.345455 419.924308 
L 880.909495 425.610804 
L 883.473535 429.54022 
L 886.037576 430.418182 
L 888.601616 426.405963 
L 891.165657 415.144915 
L 893.729697 394.128961 
L 896.293737 361.673772 
L 898.857778 318.408261 
L 901.421818 268.381818 
" clip-path="url(#p90a1e16ed7)" style="fill: none; stroke: #1f77b4; stroke-width: 1.5; stroke-linecap: square"/>
   </g>
   <g id="patch_28">
    <path d="M 659.12 438.52 
L 659.12 260.28 
" style="fill: none; stroke: #000000; stroke-width: 0.8; stroke-linejoin: miter; stroke-linecap: square"/>
   </g>
   <g id="patch_29">
    <path d="M 912.96 438.52 
L 912.96 260.28 
" style="fill: none; stroke: #000000; stroke-width: 0.8; stroke-linejoin: miter; stroke-linecap: square"/>
   </g>
   <g id="patch_30">
    <path d="M 659.12 438.52 
L 912.96 438.52 
" style="fill: none; stroke: #000000; stroke-width: 0.8; stroke-linejoin: miter; stroke-linecap: square"/>
   </g>
   <g id="patch_31">
    <path d="M 659.12 260.28 
L 912.96 260.28 
" style="fill: none; stroke: #000000; stroke-width: 0.8; stroke-linejoin: miter; stroke-linecap: square"/>
   </g>
   <g id="text_78">
    <!-- eta_ys vs. Theta -->
    <g transform="translate(737.056562 254.28) scale(0.12 -0.12)">
     <use xlink:href="#DejaVuSans-65"/>
     <use xlink:href="#DejaVuSans-74" x="61.523438"/>
     <use xlink:href="#DejaVuSans-61" x="100.732422"/>
     <use xlink:href="#DejaVuSans-5f" x="162.011719"/>
     <use xlink:href="#DejaVuSans-79" x="212.011719"/>
     <use xlink:href="#DejaVuSans-73" x="271.191406"/>
     <use xlink:href="#DejaVuSans-20" x="323.291016"/>
     <use xlink:href="#DejaVuSans-76" x="355.078125"/>
     <use xlink:href="#DejaVuSans-73" x="414.257812"/>
     <use xlink:href="#DejaVuSans-2e" x="466.357422"/>
     <use xlink:href="#DejaVuSans-20" x="498.144531"/>
     <use xlink:href="#DejaVuSans-54" x="529.931641"/>
     <use xlink:href="#DejaVuSans-68" x="591.015625"/>
     <use xlink:href="#DejaVuSans-65" x="654.394531"/>
     <use xlink:href="#DejaVuSans-74" x="715.917969"/>
     <use xlink:href="#DejaVuSans-61" x="755.126953"/>
    </g>
   </g>
  </g>
 </g>
 <defs>
  <clipPath id="p418371b8dc">
   <rect x="50.48" y="25.92" width="253.84" height="178.24"/>
  </clipPath>
  <clipPath id="pa3968b8699">
   <rect x="354.8" y="25.92" width="253.84" height="178.24"/>
  </clipPath>
  <clipPath id="p973863792f">
   <rect x="659.12" y="25.92" width="253.84" height="178.24"/>
  </clipPath>
  <clipPath id="pae41d356b5">
   <rect x="50.48" y="260.28" width="253.84" height="178.24"/>
  </clipPath>
  <clipPath id="pea85090c6b">
   <rect x="354.8" y="260.28" width="253.84" height="178.24"/>
  </clipPath>
  <clipPath id="p90a1e16ed7">
   <rect x="659.12" y="260.28" width="253.84" height="178.24"/>
  </clipPath>
 </defs>
</svg>
